<?xml version="1.0" standalone="no"?>
<!DOCTYPE svg PUBLIC "-//W3C//DTD SVG 20010904//EN"
 "http://www.w3.org/TR/2001/REC-SVG-20010904/DTD/svg10.dtd">
<svg version="1.0" xmlns="http://www.w3.org/2000/svg"
 width="180.000000pt" height="180.000000pt" viewBox="0 0 180.000000 180.000000"
 preserveAspectRatio="xMidYMid meet">
<metadata>
Created by potrace 1.11, written by Peter Selinger 2001-2013
</metadata>
<g transform="translate(0.000000,180.000000) scale(0.100000,-0.100000)"
fill="#000000" stroke="none">
<path d="M0 900 l0 -900 900 0 900 0 0 900 0 900 -900 0 -900 0 0 -900z m1338
463 l-3 -168 -97 -3 -98 -3 0 -289 0 -289 98 -3 97 -3 3 -167 2 -168 -435 0
-435 0 0 170 0 170 95 0 95 0 0 290 0 290 -95 0 -95 0 0 170 0 170 435 0 435
0 -2 -167z"/>
<path d="M514 1477 c-2 -7 -3 -62 -2 -123 l3 -109 88 -5 c63 -4 90 -9 97 -20
6 -9 10 -146 10 -320 0 -174 -4 -311 -10 -320 -7 -11 -34 -16 -97 -20 l-88 -5
0 -120 0 -120 388 -3 387 -2 0 125 0 125 -79 0 c-59 0 -84 4 -95 16 -14 13
-16 57 -16 324 0 267 2 311 16 324 11 12 36 16 95 16 l79 0 0 125 0 125 -385
0 c-309 0 -387 -3 -391 -13z"/>
</g>
</svg>
